<?xml version="1.0" ?><!DOCTYPE svg  PUBLIC '-//W3C//DTD SVG 1.1//EN'  'http://www.w3.org/Graphics/SVG/1.1/DTD/svg11.dtd'><svg enable-background="new 0 0 128 128" height="128px" id="Слой_1" version="1.1" viewBox="0 0 128 128" width="128px" xml:space="preserve" xmlns="http://www.w3.org/2000/svg" xmlns:xlink="http://www.w3.org/1999/xlink"><g><path d="M113.1826172,23.8876953l9.3525391-9.3520508l-7.0703125-7.0712891l-9.1982422,9.1987305    C95.03125,6.6201172,80.2197266,0.5,64,0.5C28.9858398,0.5,0.5,28.9858398,0.5,64    c0,16.2197266,6.1201172,31.03125,16.1630859,42.2666016l-9.1987305,9.1982422l7.0712891,7.0703125l9.3520508-9.3525391    C34.831543,122.125,48.7983398,127.5,64,127.5c35.0136719,0,63.5-28.4863281,63.5-63.5    C127.5,48.7983398,122.125,34.831543,113.1826172,23.8876953z M10.5,64c0-29.5,24-53.5,53.5-53.5    c13.4619141,0,25.7695313,5.0087891,35.1826172,13.246582L23.746582,99.1826172C15.5087891,89.7695313,10.5,77.4619141,10.5,64z     M64,117.5c-12.4433594,0-23.8979492-4.2822266-32.9956055-11.4335938l75.0620117-75.0620117    C113.2177734,40.1020508,117.5,51.5566406,117.5,64C117.5,93.5,93.5,117.5,64,117.5z" fill="#373737"/></g></svg>